<svg width="145" height="105" viewBox="0 0 145 105" fill="none" xmlns="http://www.w3.org/2000/svg">
  <path
    fill-rule="evenodd"
    clip-rule="evenodd"
    d="M51.0624 0.175984C40.5391 1.6339 31.4661 7.53537 25.7469 16.6417C24.329 18.8995 22.2944 23.4405 21.6008 25.8945C20.5112 29.7512 20.2851 31.5805 20.2798 36.5762C20.2755 40.6637 20.327 41.4755 20.7176 43.467C22.1864 50.9538 25.0887 56.7001 30.275 62.3886C40.7843 73.9162 57.4719 76.7051 71.1477 69.2196C73.4585 67.9548 76.3686 65.8702 77.8834 64.3948C83.1755 59.2399 86.5271 53.7929 88.3681 47.3561C89.4803 43.4673 89.7829 41.1848 89.7829 36.6839C89.7829 32.183 89.4803 29.9006 88.3681 26.0117C84.6795 13.1144 74.5011 3.40128 61.8286 0.685448C58.8386 0.044527 53.7492 -0.196198 51.0624 0.175984ZM52.2901 6.74316C52.0304 6.7951 51.1804 6.94186 50.4013 7.06944C45.9099 7.8054 41.7402 9.6493 37.7363 12.6701C35.4919 14.3635 31.7955 18.5414 30.4093 20.9518C26.1383 28.3776 25.0785 37.1324 27.4569 45.3387C28.745 49.7827 30.6998 53.3218 33.8716 56.952C37.9896 61.6652 43.5716 64.9896 49.4968 66.2579C52.2386 66.8447 57.945 66.7831 60.7758 66.1357C66.9861 64.7157 72.0328 61.6887 76.2779 56.8378C81.0439 51.3915 83.4469 45.3068 83.7693 37.8692C84.4079 23.1336 74.4847 10.0572 60.4615 7.15565C58.8792 6.82808 53.28 6.54554 52.2901 6.74316ZM82.1332 9.29414C82.1332 9.3478 82.6349 9.93764 83.248 10.6049C83.8611 11.2721 84.9874 12.7808 85.7506 13.9573L87.1385 16.0966L110.883 16.0997C134.286 16.1029 134.643 16.1091 135.653 16.5408C136.862 17.057 138.229 18.5935 138.629 19.8864C138.849 20.5995 138.892 26.5781 138.892 57.0494C138.892 77.0217 138.826 93.7123 138.747 94.1397C138.472 95.6088 137.565 96.8409 136.189 97.6137L134.933 98.3192H89.5035H44.0738L43.0837 97.8085C42.5392 97.5277 41.8003 96.9275 41.4418 96.4745C40.2533 94.9737 40.2018 94.467 40.2018 84.2867V75.1812L39.7768 75.028C39.5431 74.9437 38.5868 74.456 37.6519 73.944L35.952 73.0132L35.0555 74.1367L34.1591 75.2599L34.2126 85.281C34.2639 94.9453 34.2807 95.3526 34.6812 96.7185C35.7519 100.37 38.3235 103.274 41.5564 104.483L42.9405 105H89.6884C89.6884 105 135.865 104.715 136.3 104.715C136.735 104.715 136.977 104.639 137.315 104.572C137.566 104.522 137.809 104.428 137.809 104.428C141.2 103.013 143.526 100.204 144.622 96.1989C144.896 95.1978 144.933 91.4215 144.987 58.4502C145.025 34.5599 144.98 21.2372 144.855 20.1562C144.75 19.2446 144.491 17.939 144.281 17.2552C143.235 13.861 140.531 10.9441 137.286 9.71093C136.302 9.3368 134.837 9.3131 109.19 9.25642C94.3088 9.22366 82.1332 9.24047 82.1332 9.29414ZM114.876 26.3671C114 26.7214 112.902 27.8373 112.402 28.8819C112.119 29.4713 112.061 30.3113 112.006 34.6366C111.925 40.9736 112.022 41.5844 113.364 43.1574C114.834 44.8793 115.479 45.0338 120.813 44.9435C124.831 44.8756 125.154 44.84 125.898 44.3873C126.86 43.8026 127.549 43.0026 128.062 41.877C128.416 41.1012 128.448 40.6083 128.474 35.5195C128.498 30.6292 128.463 29.9053 128.162 29.1411C127.692 27.9479 126.969 27.1287 125.859 26.5298C124.944 26.0361 124.774 26.021 120.287 26.0354C116.723 26.0469 115.479 26.1232 114.876 26.3671ZM32.7476 26.4352C32.5685 26.7656 32.6103 44.5948 32.7905 44.8004C32.8811 44.9038 35.1171 44.9627 37.7592 44.931L42.5628 44.8732L42.6194 43.5076C42.6534 42.686 42.5879 42.0203 42.4547 41.8374C42.2815 41.5992 41.6002 41.5329 39.3288 41.5329H36.4242V39.3778V37.2227H39.0307C40.8062 37.2227 41.7096 37.1401 41.8639 36.9641C42.1582 36.6283 42.1582 34.3689 41.8639 34.0332C41.7096 33.8571 40.8062 33.7746 39.0307 33.7746H36.4242L36.4238 31.7811L36.4236 29.7877L39.1531 29.8525C41.6945 29.9129 41.9092 29.8868 42.2698 29.4754C42.563 29.1409 42.6572 28.7554 42.6572 27.8912C42.6572 27.263 42.5552 26.6326 42.4306 26.4904C42.1497 26.1699 32.9197 26.1173 32.7476 26.4352ZM44.8044 26.5512C44.7409 26.7402 45.5798 28.4353 46.8575 30.6997C48.0458 32.8059 49.1186 34.7448 49.2416 35.0086C49.4892 35.5394 49.2454 36.0404 46.0771 41.5115C45.2258 42.9815 44.5553 44.3392 44.587 44.5286C44.6344 44.8109 44.9757 44.8844 46.4741 44.9349L48.3034 44.9963L48.9394 43.8573C49.2892 43.2308 50.0375 41.8255 50.6023 40.7346C51.167 39.6435 51.6715 38.7491 51.7235 38.7468C51.7754 38.7446 52.5426 40.1221 53.4285 41.8081L55.0391 44.8732L56.9473 44.9344C58.5806 44.9866 58.873 44.9441 58.9757 44.6385C59.0564 44.3985 58.3313 42.9653 56.7605 40.2607C55.4762 38.0489 54.3334 36.0436 54.2212 35.8042C54.0452 35.4288 54.3533 34.7935 56.4598 31.1887C58.1284 28.3336 58.8684 26.8854 58.7946 26.6201C58.7007 26.2829 58.4567 26.2318 56.9343 26.2318C54.8814 26.2318 55.1764 25.9697 53.2353 29.5159C52.0355 31.7076 51.8211 31.9955 51.6307 31.671C51.51 31.465 50.7919 30.1566 50.0353 28.764L48.6596 26.2318H46.7858C45.3042 26.2318 44.8894 26.2986 44.8044 26.5512ZM61.6316 26.5012C61.5819 26.6494 61.5632 30.8437 61.5904 35.8219L61.6397 44.8732L63.2163 44.9362C64.2162 44.976 64.8898 44.9073 65.0579 44.7482C65.4186 44.4067 65.4553 26.9001 65.0962 26.4904C64.7791 26.1286 61.7538 26.138 61.6316 26.5012ZM68.9992 26.4975C68.9488 26.6477 68.9295 30.8437 68.9567 35.8219L69.006 44.8732H70.8004H72.5948L72.6465 41.3971L72.6983 37.9209L73.284 37.7873C73.6062 37.7138 74.7771 37.6537 75.886 37.6537C77.2023 37.6537 77.9811 37.5638 78.129 37.3951C78.4232 37.0593 78.4232 34.8 78.129 34.4642C77.9746 34.2881 77.0712 34.2056 75.2957 34.2056H72.6892V32.0505V29.8954H75.3919C78.7583 29.8954 78.773 29.8864 78.6958 27.8429L78.6389 26.3395L73.865 26.282C70.1476 26.2372 69.0708 26.2848 68.9992 26.4975ZM108.474 56.1003C107.354 56.4919 107.114 56.702 101.381 62.3294C95.5388 68.063 93.6526 69.9765 93.6664 70.1549C93.6729 70.2364 94.8841 71.3872 96.358 72.7121C99.8152 75.8198 106.235 81.7478 112.509 87.6268C115.244 90.1888 117.718 92.5051 118.007 92.774L118.533 93.2628L126.352 93.28C130.652 93.2893 134.312 93.2876 134.486 93.2759C134.775 93.2565 134.803 92.6038 134.815 85.6581L134.829 78.0615L131.855 75.2185C130.219 73.655 127.129 70.6486 124.988 68.5377C114.507 58.2041 112.976 56.7423 112.253 56.3775C111.135 55.8131 109.614 55.7017 108.474 56.1003ZM22.4111 59.7756C21.1634 61.1135 19.233 63.0686 16.6862 65.5734C11.7432 70.4349 2.17562 80.2426 1.68113 80.9551C-0.361421 83.8977 -0.560123 87.8721 1.18041 90.9743C1.99335 92.4236 2.99517 93.397 4.49771 94.1974C5.62155 94.7963 5.90714 94.8554 7.71435 94.8629C9.98771 94.8724 11.1431 94.5164 12.4613 93.4009C12.915 93.0169 17.8619 87.4587 23.4541 81.0495L33.6221 69.3966L32.3742 68.3804C29.6588 66.1697 27.5407 63.8724 25.0063 60.3898C24.4025 59.5601 23.8398 58.7948 23.7558 58.6895C23.6708 58.5828 23.0728 59.066 22.4111 59.7756ZM81.5227 67.63C81.1673 67.63 79.1576 67.8092 77.5562 68.8153C75.9549 69.8215 76.4287 69.507 75.149 70.7609C73.8693 72.0147 70.901 75.1329 70.1899 75.8193C66.1267 79.7411 60.0599 86.0706 54.2326 91.5307C53.2838 92.4197 52.567 93.1721 52.6395 93.2027C52.9393 93.3289 111.787 93.3514 111.787 93.2251C111.787 93.105 106.038 87.6988 102.532 84.5218C100.905 83.047 93.857 76.513 89.5283 72.4658C85.1817 68.402 85.0694 68.3108 83.9404 67.9264C82.9046 67.5738 81.8782 67.63 81.5227 67.63Z"
    fill="#39bdc7"
  />
</svg>
